<svg id="visual" viewBox="0 0 1920 1080" width="1920" height="1080" xmlns="http://www.w3.org/2000/svg" xmlns:xlink="http://www.w3.org/1999/xlink" version="1.1"><path d="M0 98L113 66L226 44L339 55L452 66L565 44L678 98L791 98L904 98L1016 44L1129 44L1242 98L1355 55L1468 66L1581 33L1694 77L1807 55L1920 77L1920 0L1807 0L1694 0L1581 0L1468 0L1355 0L1242 0L1129 0L1016 0L904 0L791 0L678 0L565 0L452 0L339 0L226 0L113 0L0 0Z" fill="#00cc8e"></path><path d="M0 131L113 152L226 131L339 109L452 120L565 131L678 163L791 174L904 174L1016 141L1129 109L1242 152L1355 152L1468 120L1581 109L1694 131L1807 109L1920 174L1920 75L1807 53L1694 75L1581 31L1468 64L1355 53L1242 96L1129 42L1016 42L904 96L791 96L678 96L565 42L452 64L339 53L226 42L113 64L0 96Z" fill="#00c38c"></path><path d="M0 260L113 401L226 379L339 390L452 314L565 368L678 444L791 487L904 401L1016 368L1129 271L1242 357L1355 379L1468 249L1581 206L1694 455L1807 293L1920 422L1920 172L1807 107L1694 129L1581 107L1468 118L1355 150L1242 150L1129 107L1016 139L904 172L791 172L678 161L565 129L452 118L339 107L226 129L113 150L0 129Z" fill="#00b98a"></path><path d="M0 368L113 487L226 487L339 498L452 444L565 422L678 509L791 552L904 530L1016 444L1129 347L1242 476L1355 444L1468 293L1581 293L1694 563L1807 444L1920 519L1920 420L1807 291L1694 453L1581 204L1468 247L1355 377L1242 355L1129 269L1016 366L904 399L791 485L678 442L565 366L452 312L339 388L226 377L113 399L0 258Z" fill="#00b087"></path><path d="M0 476L113 660L226 638L339 649L452 552L565 638L678 638L791 725L904 649L1016 519L1129 563L1242 660L1355 552L1468 519L1581 519L1694 660L1807 649L1920 606L1920 517L1807 442L1694 561L1581 291L1468 291L1355 442L1242 474L1129 345L1016 442L904 528L791 550L678 507L565 420L452 442L339 496L226 485L113 485L0 366Z" fill="#00a784"></path><path d="M0 552L113 768L226 746L339 692L452 649L565 714L678 746L791 800L904 725L1016 617L1129 660L1242 725L1355 671L1468 573L1581 617L1694 703L1807 725L1920 649L1920 604L1807 647L1694 658L1581 517L1468 517L1355 550L1242 658L1129 561L1016 517L904 647L791 723L678 636L565 636L452 550L339 647L226 636L113 658L0 474Z" fill="#009e80"></path><path d="M0 606L113 833L226 833L339 746L452 714L565 800L678 789L791 843L904 768L1016 660L1129 703L1242 757L1355 703L1468 638L1581 692L1694 735L1807 757L1920 692L1920 647L1807 723L1694 701L1581 615L1468 571L1355 669L1242 723L1129 658L1016 615L904 723L791 798L678 744L565 712L452 647L339 690L226 744L113 766L0 550Z" fill="#00957c"></path><path d="M0 725L113 962L226 941L339 887L452 768L565 930L678 843L791 951L904 919L1016 779L1129 800L1242 822L1355 833L1468 800L1581 757L1694 800L1807 843L1920 843L1920 690L1807 755L1694 733L1581 690L1468 636L1355 701L1242 755L1129 701L1016 658L904 766L791 841L678 787L565 798L452 712L339 744L226 831L113 831L0 604Z" fill="#008c78"></path><path d="M0 1081L113 1081L226 1081L339 1081L452 1081L565 1081L678 1081L791 1081L904 1081L1016 1081L1129 1081L1242 1081L1355 1081L1468 1081L1581 1081L1694 1081L1807 1081L1920 1081L1920 841L1807 841L1694 798L1581 755L1468 798L1355 831L1242 820L1129 798L1016 777L904 917L791 949L678 841L565 928L452 766L339 885L226 939L113 960L0 723Z" fill="#038373"></path></svg>